<svg xmlns="http://www.w3.org/2000/svg" viewBox="0 0 350 350"><defs><style>.cls-1{fill:#1b1464;}.cls-2{font-size:16px;font-family:MyriadPro-Regular, Myriad Pro;}.cls-3,.cls-4{fill:#fff;}.cls-4{fill-rule:evenodd;}</style></defs><title>Asset 2</title><g id="Layer_2" data-name="Layer 2"><g id="Layer_1-2" data-name="Layer 1"><rect class="cls-1" width="350" height="350" rx="20.5" ry="20.5"/><text class="cls-2" transform="translate(237 175)"><tspan xml:space="preserve">   </tspan></text><path class="cls-3" d="M106.71,283.42l-9,7a73.73,73.73,0,0,1-9,6.08c-2.06,1.17-3.76,2.11-5,2.64a21.74,21.74,0,0,1-4.09,1.44h0l1.63.23a85.77,85.77,0,0,0,25.3-2.6,94.08,94.08,0,0,0,16-5.29,38.69,38.69,0,0,0,10.09-6.26l1-.91-7.41,1c-.24,0-6.42-.1-15.18,3.52l-14.6,5.17c21.15-14.26,27.22-14.15,30.93-13.54a49.09,49.09,0,0,1,5.47,1.33c.12,0,.78.15,1.48.26.2-2.05.08-4.3-1-5.45a8.45,8.45,0,0,0-7.56-3.07c-5.43.27-10.9,3.21-14.32,5.17A32.19,32.19,0,0,0,106.71,283.42Z"/><path class="cls-4" d="M253.2,67.89c21.15,23,34.29,55.06,34.29,90.56,0,69.91-50.92,126.57-113.72,126.57S60,228.36,60,158.45c0-35.5,13.14-67.58,34.3-90.56C75.18,90,63.4,120,63.4,153.17,63.4,221,112.81,276,173.77,276s110.37-55,110.37-122.83C284.14,120,272.35,90,253.2,67.89Z"/><path class="cls-3" d="M91.53,268.85l-9.65,5A70.44,70.44,0,0,1,72.35,278c-2.15.75-3.92,1.33-5.13,1.61a19.12,19.12,0,0,1-4.1.64h0l1.5.51a82.66,82.66,0,0,0,24.28,2,88.32,88.32,0,0,0,16-2.16,36.21,36.21,0,0,0,10.58-4.11l1.14-.68-7.15-.4a40.15,40.15,0,0,0-14.9.64l-14.65,2.3c22.37-9.71,28.07-8.54,31.47-7.31a48.79,48.79,0,0,1,4.92,2.22c.12,0,.71.28,1.35.51.54-1.9.81-4,0-5.31a8.16,8.16,0,0,0-6.6-4.23c-5.16-.7-10.82,1.1-14.38,2.35A31.16,31.16,0,0,0,91.53,268.85Z"/><path class="cls-3" d="M73.4,251.23l-9.94,3.05a66.54,66.54,0,0,1-9.67,2.21c-2.15.31-3.91.55-5.09.61a19.58,19.58,0,0,1-4-.12h0l1.32.74a79,79,0,0,0,22.49,6.17,84.63,84.63,0,0,0,15.42.78,34.78,34.78,0,0,0,10.66-2l1.18-.44-6.65-1.64a38.75,38.75,0,0,0-14.13-2l-14.17-.42c22.7-5.18,27.86-3.08,30.84-1.32A44.63,44.63,0,0,1,96,259.78c.1.05.61.39,1.18.72.83-1.69,1.45-3.66.89-5a7.85,7.85,0,0,0-5.49-5.14c-4.72-1.57-10.36-.87-13.92-.33A29.41,29.41,0,0,0,73.4,251.23Z"/><path class="cls-3" d="M61.43,231c-.19,0-1.42.15-9.84,1.11a62.32,62.32,0,0,1-9.46.37c-2.07-.08-3.76-.17-4.88-.32a18,18,0,0,1-3.71-.81h0l1.12.93A76.11,76.11,0,0,0,54.72,242a81.87,81.87,0,0,0,14.33,3.45,33.09,33.09,0,0,0,10.34,0l1.18-.2-6-2.71a36.77,36.77,0,0,0-12.91-4.38l-13.23-2.88c22.19-.88,26.68,2,29.17,4.17A44.84,44.84,0,0,1,81.13,243c.09.07.52.47,1,.88,1.07-1.43,2-3.17,1.69-4.53a7.55,7.55,0,0,0-4.27-5.79c-4.17-2.3-9.58-2.63-13-2.75A26.46,26.46,0,0,0,61.43,231Z"/><path class="cls-3" d="M53.07,207.68,43.66,207a61.21,61.21,0,0,1-8.92-1.31c-1.93-.44-3.49-.81-4.52-1.16a17.28,17.28,0,0,1-3.32-1.41h0l.88,1.07a73.14,73.14,0,0,0,17.13,12.64,76.63,76.63,0,0,0,12.83,5.74,31.24,31.24,0,0,0,9.68,1.8l1.15,0-5.12-3.59a35.57,35.57,0,0,0-11.35-6.36l-11.9-5c20.93,3.07,24.64,6.55,26.61,9a41.82,41.82,0,0,1,2.67,3.9c.06.08.4.53.77,1,1.25-1.16,2.4-2.62,2.35-4a7.21,7.21,0,0,0-3-6.17c-3.51-2.89-8.52-4.15-11.72-4.86A27.67,27.67,0,0,0,53.07,207.68Z"/><path class="cls-3" d="M48.57,182.54l-8.67-2.28a57.37,57.37,0,0,1-8.1-2.78c-1.73-.75-3.13-1.38-4-1.87a17.61,17.61,0,0,1-2.87-1.9h0l.65,1.15a69.53,69.53,0,0,0,13.85,14.8,74.63,74.63,0,0,0,11,7.61,29.81,29.81,0,0,0,8.74,3.37l1.06.23L56,196.62a34.24,34.24,0,0,0-9.52-7.92l-10.26-6.78c19,6.53,21.9,10.43,23.32,13.09a39.7,39.7,0,0,1,1.82,4.11c.06.09.29.57.56,1.07,1.36-.86,2.69-2,2.87-3.28a6.93,6.93,0,0,0-1.77-6.29c-2.79-3.31-7.26-5.36-10.12-6.59A26.26,26.26,0,0,0,48.57,182.54Z"/><path class="cls-3" d="M48.07,156.51l-7.69-3.64a55.58,55.58,0,0,1-7.08-4c-1.48-1-2.67-1.82-3.43-2.44a16.61,16.61,0,0,1-2.36-2.27h0l.42,1.18a66.52,66.52,0,0,0,10.39,16.21,71,71,0,0,0,9,9,28.18,28.18,0,0,0,7.57,4.67l1,.39-3.17-4.67a32.25,32.25,0,0,0-7.52-9.05l-8.41-8.1c16.61,9.4,18.63,13.54,19.5,16.26a39,39,0,0,1,1,4.15c0,.09.17.58.34,1.09,1.41-.57,2.84-1.42,3.22-2.55a6.56,6.56,0,0,0-.58-6.17c-2-3.57-5.85-6.26-8.31-7.9A24.28,24.28,0,0,0,48.07,156.51Z"/><path class="cls-3" d="M51.55,130.48,45,125.76a51.22,51.22,0,0,1-5.89-5c-1.21-1.18-2.18-2.15-2.78-2.86a15.16,15.16,0,0,1-1.8-2.52h0l.18,1.17a63.23,63.23,0,0,0,6.92,16.85,67.36,67.36,0,0,0,6.81,9.93A27.47,27.47,0,0,0,54.7,149l.81.53-2.15-4.9A31,31,0,0,0,47.9,135l-6.44-9c13.84,11.61,15,15.8,15.37,18.48a38.4,38.4,0,0,1,.23,4c0,.09.06.57.13,1.07,1.41-.28,2.88-.83,3.43-1.81a6.17,6.17,0,0,0,.49-5.82c-1.29-3.68-4.38-6.84-6.38-8.79A23.84,23.84,0,0,0,51.55,130.48Z"/><path class="cls-3" d="M58,110.12l-5.25-5.5A49.51,49.51,0,0,1,48.17,99c-.92-1.3-1.65-2.38-2.09-3.13a15,15,0,0,1-1.24-2.64h0l0,1.11a59.85,59.85,0,0,0,3.57,16.79A63.68,63.68,0,0,0,53,121.51a25.67,25.67,0,0,0,4.83,6.31l.66.63-1.17-4.9a29.07,29.07,0,0,0-3.42-9.93l-4.45-9.42C60.31,117.34,60.69,121.42,60.57,124a34.24,34.24,0,0,1-.46,3.77c0,.09,0,.54-.06,1,1.35,0,2.8-.26,3.47-1.07A5.82,5.82,0,0,0,65,122.36c-.57-3.62-2.9-7.08-4.43-9.23A21.66,21.66,0,0,0,58,110.12Z"/><path class="cls-3" d="M69.78,82.11c-.08-.11-.56-.86-3.92-6a47.09,47.09,0,0,1-3.32-6c-.63-1.36-1.13-2.47-1.4-3.24a13.88,13.88,0,0,1-.7-2.65h0l-.21,1A56,56,0,0,0,60.7,81.4a60,60,0,0,0,2.54,10.35,23.61,23.61,0,0,0,3.39,6.64l.51.7-.26-4.72a27.48,27.48,0,0,0-1.49-9.74l-2.53-9.45c7.81,14,7.47,17.82,6.94,20.13a35.06,35.06,0,0,1-1.06,3.4c0,.07-.13.48-.23.92,1.25.22,2.63.24,3.38-.4a5.41,5.41,0,0,0,2.22-4.64c.07-3.43-1.49-7-2.53-9.27A21.46,21.46,0,0,0,69.78,82.11Z"/><path class="cls-3" d="M86.61,58.48c0-.11-.38-.88-2.6-6.15a44.06,44.06,0,0,1-2.05-6c-.35-1.35-.63-2.46-.74-3.21A12.14,12.14,0,0,1,81,40.53h0l-.37.9A52.42,52.42,0,0,0,78.4,56.27,55.91,55.91,0,0,0,79,66.2a22.88,22.88,0,0,0,2,6.68l.36.72.54-4.37A25.52,25.52,0,0,0,82.16,60l-.74-9.11c4.83,14.18,3.89,17.63,3,19.66a31.46,31.46,0,0,1-1.53,2.94c0,.06-.2.42-.36.8a4.11,4.11,0,0,0,3.17.22,5,5,0,0,0,2.8-3.88c.64-3.13-.19-6.69-.78-8.94A20.71,20.71,0,0,0,86.61,58.48Z"/><path class="cls-3" d="M84.88,113l3.75-6.63a49.93,49.93,0,0,1,4-6.06c1-1.25,1.8-2.27,2.39-2.9a15.09,15.09,0,0,1,2.16-1.94h0l-1.06.28a57.71,57.71,0,0,0-14.92,8.11,63.67,63.67,0,0,0-8.53,7.38,25.82,25.82,0,0,0-4.64,6.45l-.42.82L72,116a28.39,28.39,0,0,0,8.45-6.07l7.7-6.94c-9.46,14.22-13.22,15.72-15.65,16.29a32.38,32.38,0,0,1-3.7.59c-.08,0-.52.11-1,.22.38,1.32,1,2.67,2,3.1a5.6,5.6,0,0,0,5.42-.06c3.26-1.56,5.9-4.78,7.51-6.87A22.08,22.08,0,0,0,84.88,113Z"/><path class="cls-3" d="M94.06,80.67l6.66-2.37a44.33,44.33,0,0,0,6.19-2.73c1.31-.7,2.36-1.28,3-1.74a13.34,13.34,0,0,0,2.14-1.68h0l-.44.95a55.12,55.12,0,0,1-9.92,12.55,59,59,0,0,1-8.16,6.71,23.93,23.93,0,0,1-6.65,3.24l-.82.25,3-3.62a26.6,26.6,0,0,1,7-6.86l7.62-6C89.17,85.76,87.16,89,86.22,91.2a31.37,31.37,0,0,0-1.17,3.36c0,.07-.19.46-.37.87-1.12-.59-2.24-1.42-2.46-2.38a5.43,5.43,0,0,1,1-5.06c2-2.79,5.35-4.7,7.52-5.85A20.27,20.27,0,0,1,94.06,80.67Z"/><path class="cls-3" d="M103.75,59.64l6.48-1.17a41.68,41.68,0,0,0,6.11-1.58c1.3-.44,2.36-.82,3-1.13a12.58,12.58,0,0,0,2.21-1.23h0l-.54.81a51,51,0,0,1-11,10,54.81,54.81,0,0,1-8.5,4.94,21.69,21.69,0,0,1-6.6,2l-.79.1,3.29-2.87a25.24,25.24,0,0,1,7.43-5.26l7.9-4.37C98.49,63.59,96.17,66.28,95,68.15a27.86,27.86,0,0,0-1.57,2.91c0,.06-.24.4-.47.75A4.26,4.26,0,0,1,91,69.24a5.08,5.08,0,0,1,1.65-4.51c2.23-2.27,5.62-3.51,7.79-4.25A18.93,18.93,0,0,1,103.75,59.64Z"/><path class="cls-3" d="M132.81,295.44l-12.54,9.85a102.26,102.26,0,0,1-12.63,8.51c-2.9,1.65-5.27,2.95-6.94,3.69a29.31,29.31,0,0,1-5.73,2h0l2.29.32s15.1,1.33,35.42-3.64a130.43,130.43,0,0,0,22.43-7.41A53.31,53.31,0,0,0,169.24,300l1.46-1.27-10.38,1.34c-.34.05-9-.14-21.25,4.94l-20.45,7.24c29.61-20,38.12-19.83,43.31-19,3.41.54,3.64.86,7.66,1.86.18,0,1.09.21,2.07.36.29-2.87.12-6-1.41-7.62-1.79-1.92-4.33-4.62-10.59-4.3-7.59.37-15.26,4.49-20,7.23A46.9,46.9,0,0,0,132.81,295.44Z"/><path class="cls-3" d="M240,283.42l9,7a73.73,73.73,0,0,0,9,6.08c2.07,1.17,3.77,2.11,5,2.64a21.74,21.74,0,0,0,4.09,1.44h0l-1.64.23a85.69,85.69,0,0,1-25.29-2.6,93.79,93.79,0,0,1-16-5.29A38.48,38.48,0,0,1,214,286.69l-1.05-.91,7.42,1c.24,0,6.42-.1,15.17,3.52l14.61,5.17c-21.15-14.26-27.23-14.15-30.93-13.54a48.69,48.69,0,0,0-5.48,1.33c-.12,0-.77.15-1.47.26-.21-2.05-.08-4.3,1-5.45A8.47,8.47,0,0,1,220.8,275c5.42.27,10.9,3.21,14.32,5.17A31.19,31.19,0,0,1,240,283.42Z"/><path class="cls-3" d="M255.15,268.85l9.65,5a70.5,70.5,0,0,0,9.54,4.13c2.15.75,3.91,1.33,5.12,1.61a19.35,19.35,0,0,0,4.11.64h0l-1.51.51a82.53,82.53,0,0,1-24.28,2,88.58,88.58,0,0,1-16-2.16,36.36,36.36,0,0,1-10.58-4.11l-1.14-.68,7.15-.4a40.16,40.16,0,0,1,14.9.64l14.66,2.3c-22.38-9.71-28.08-8.54-31.47-7.31a48.86,48.86,0,0,0-4.93,2.22c-.11,0-.71.28-1.35.51-.54-1.9-.81-4,0-5.31a8.13,8.13,0,0,1,6.6-4.23c5.15-.7,10.82,1.1,14.38,2.35A30.82,30.82,0,0,1,255.15,268.85Z"/><path class="cls-3" d="M273.29,251.23l9.93,3.05a66.83,66.83,0,0,0,9.67,2.21c2.16.31,3.91.55,5.1.61a19.59,19.59,0,0,0,4-.12h0l-1.33.74a78.76,78.76,0,0,1-22.49,6.17,84.59,84.59,0,0,1-15.42.78,34.58,34.58,0,0,1-10.65-2l-1.18-.44,6.65-1.64a38.69,38.69,0,0,1,14.13-2l14.16-.42C263.14,253,258,255.07,255,256.83a44.6,44.6,0,0,0-4.25,2.95c-.1.05-.62.39-1.18.72-.84-1.69-1.45-3.66-.9-5a7.87,7.87,0,0,1,5.49-5.14c4.73-1.57,10.36-.87,13.92-.33A29.65,29.65,0,0,1,273.29,251.23Z"/><path class="cls-3" d="M285.26,231c.18,0,1.41.15,9.84,1.11a62.28,62.28,0,0,0,9.46.37c2.07-.08,3.75-.17,4.88-.32a18.16,18.16,0,0,0,3.71-.81h0l-1.12.93A76.11,76.11,0,0,1,292,242a82.08,82.08,0,0,1-14.33,3.45,33.17,33.17,0,0,1-10.35,0l-1.18-.2,6-2.71A36.87,36.87,0,0,1,285,238.16l13.24-2.88c-22.2-.88-26.68,2-29.18,4.17a46.66,46.66,0,0,0-3.49,3.52c-.08.07-.51.47-1,.88-1.07-1.43-2-3.17-1.69-4.53a7.53,7.53,0,0,1,4.27-5.79c4.17-2.3,9.58-2.63,13-2.75A26.6,26.6,0,0,1,285.26,231Z"/><path class="cls-3" d="M293.61,207.68,303,207a61.21,61.21,0,0,0,8.92-1.31c1.93-.44,3.49-.81,4.52-1.16a17.3,17.3,0,0,0,3.33-1.41h0l-.89,1.07a72.93,72.93,0,0,1-17.12,12.64,77.05,77.05,0,0,1-12.84,5.74,31.2,31.2,0,0,1-9.68,1.8l-1.14,0,5.12-3.59a35.42,35.42,0,0,1,11.35-6.36l11.89-5c-20.93,3.07-24.64,6.55-26.61,9a41.9,41.9,0,0,0-2.66,3.9c-.07.08-.4.53-.78,1-1.24-1.16-2.4-2.62-2.35-4a7.27,7.27,0,0,1,3-6.17c3.52-2.89,8.53-4.15,11.72-4.86A27.92,27.92,0,0,1,293.61,207.68Z"/><path class="cls-3" d="M298.11,182.54l8.68-2.28a57.82,57.82,0,0,0,8.1-2.78c1.73-.75,3.12-1.38,4-1.87a17.61,17.61,0,0,0,2.87-1.9h0l-.65,1.15a70.19,70.19,0,0,1-13.85,14.8,75.16,75.16,0,0,1-11,7.61,29.92,29.92,0,0,1-8.74,3.37l-1.06.23,4.17-4.25a34,34,0,0,1,9.52-7.92l10.25-6.78c-19,6.53-21.89,10.43-23.31,13.09a39.58,39.58,0,0,0-1.83,4.11c0,.09-.29.57-.56,1.07-1.35-.86-2.68-2-2.86-3.28a6.87,6.87,0,0,1,1.77-6.29c2.79-3.31,7.25-5.36,10.11-6.59A26.26,26.26,0,0,1,298.11,182.54Z"/><path class="cls-3" d="M298.62,156.51l7.68-3.64a54.89,54.89,0,0,0,7.08-4c1.49-1,2.68-1.82,3.44-2.44a16.68,16.68,0,0,0,2.35-2.27h0l-.41,1.18a66.78,66.78,0,0,1-10.4,16.21,70.35,70.35,0,0,1-9,9,28.22,28.22,0,0,1-7.56,4.67l-1,.39,3.18-4.67a32,32,0,0,1,7.52-9.05l8.4-8.1c-16.61,9.4-18.63,13.54-19.5,16.26a41.62,41.62,0,0,0-1,4.15c0,.09-.16.58-.33,1.09-1.42-.57-2.85-1.42-3.23-2.55a6.57,6.57,0,0,1,.59-6.17c2-3.57,5.85-6.26,8.3-7.9A23.65,23.65,0,0,1,298.62,156.51Z"/><path class="cls-3" d="M295.14,130.48l6.52-4.72a51.42,51.42,0,0,0,5.9-5c1.21-1.18,2.18-2.15,2.77-2.86a15.07,15.07,0,0,0,1.81-2.52h0L312,116.6A63,63,0,0,1,305,133.45a68.14,68.14,0,0,1-6.81,9.93A27.47,27.47,0,0,1,292,149l-.82.53,2.16-4.9a30.5,30.5,0,0,1,5.46-9.71l6.44-9c-13.85,11.61-15,15.8-15.37,18.48a38.17,38.17,0,0,0-.24,4c0,.09-.05.57-.13,1.07-1.4-.28-2.88-.83-3.42-1.81a6.14,6.14,0,0,1-.49-5.82c1.28-3.68,4.37-6.84,6.37-8.79A23.57,23.57,0,0,1,295.14,130.48Z"/><path class="cls-3" d="M288.65,110.12c.1-.11.75-.8,5.24-5.5a48.45,48.45,0,0,0,4.62-5.6c.93-1.3,1.66-2.38,2.09-3.13a15.57,15.57,0,0,0,1.25-2.64h0l0,1.11a60.3,60.3,0,0,1-3.57,16.79,64.51,64.51,0,0,1-4.64,10.36,25.79,25.79,0,0,1-4.82,6.31l-.67.63,1.17-4.9a29.24,29.24,0,0,1,3.43-9.93l4.45-9.42C286.37,117.34,286,121.42,286.12,124a34,34,0,0,0,.45,3.77c0,.09.05.54.07,1-1.35,0-2.81-.26-3.48-1.07a5.84,5.84,0,0,1-1.44-5.31c.58-3.62,2.9-7.08,4.43-9.23A22.13,22.13,0,0,1,288.65,110.12Z"/><path class="cls-3" d="M276.31,82.71c.08-.11.57-.86,3.92-6a45.87,45.87,0,0,0,3.32-6c.63-1.36,1.13-2.47,1.4-3.25a13.52,13.52,0,0,0,.7-2.64h0l.22,1A55.82,55.82,0,0,1,285.39,82a61,61,0,0,1-2.53,10.35A24.25,24.25,0,0,1,279.47,99l-.51.7.26-4.72a27.31,27.31,0,0,1,1.48-9.74l2.53-9.45c-7.8,14-7.47,17.82-6.93,20.13a29.52,29.52,0,0,0,1.06,3.39c0,.08.12.49.22.93-1.24.22-2.63.24-3.38-.4A5.37,5.37,0,0,1,272,95.19c-.08-3.43,1.48-7,2.53-9.27A22.37,22.37,0,0,1,276.31,82.71Z"/><path class="cls-3" d="M261.85,58.48c0-.11.37-.88,2.59-6.15a44.26,44.26,0,0,0,2.06-6c.35-1.35.62-2.46.74-3.21a13.7,13.7,0,0,0,.21-2.55h0l.36.9a52.62,52.62,0,0,1,2.25,14.84,56.77,56.77,0,0,1-.61,9.93,22.52,22.52,0,0,1-2,6.68l-.35.72-.55-4.37a25.77,25.77,0,0,1-.26-9.19l.74-9.11c-4.82,14.18-3.88,17.63-3,19.66a30.26,30.26,0,0,0,1.53,2.94c0,.06.2.42.37.8a4.11,4.11,0,0,1-3.17.22A5,5,0,0,1,260,70.67c-.64-3.13.2-6.69.78-8.94A20.15,20.15,0,0,1,261.85,58.48Z"/><path class="cls-3" d="M261.81,113c-.08-.12-.54-.95-3.76-6.63a48.78,48.78,0,0,0-4-6.06c-1-1.25-1.79-2.27-2.39-2.9a14,14,0,0,0-2.16-1.94h0l1.07.28a57.75,57.75,0,0,1,14.91,8.11,62.43,62.43,0,0,1,8.53,7.38,26,26,0,0,1,4.65,6.45l.41.82-4.32-2.5a28.22,28.22,0,0,1-8.46-6.07L258.57,103c9.45,14.22,13.21,15.72,15.65,16.29a32.18,32.18,0,0,0,3.69.59c.08,0,.52.11,1,.22-.39,1.32-1,2.67-2,3.1a5.6,5.6,0,0,1-5.42-.06c-3.26-1.56-5.9-4.78-7.52-6.87A20.68,20.68,0,0,1,261.81,113Z"/><path class="cls-3" d="M252.63,80.67,246,78.3a44.33,44.33,0,0,1-6.19-2.73c-1.32-.7-2.37-1.28-3.05-1.74a13.38,13.38,0,0,1-2.13-1.68h0l.44.95A55.12,55.12,0,0,0,245,85.65a59,59,0,0,0,8.16,6.71,23.78,23.78,0,0,0,6.65,3.24l.82.25-3-3.62a27,27,0,0,0-7-6.86l-7.62-6c14.52,6.4,16.53,9.66,17.47,11.84a33.74,33.74,0,0,1,1.17,3.36l.36.87c1.13-.59,2.25-1.42,2.47-2.38a5.46,5.46,0,0,0-1-5.06c-2-2.79-5.36-4.7-7.53-5.85A20.38,20.38,0,0,0,252.63,80.67Z"/><path class="cls-3" d="M213.85,295.68c.23.17,1.74,1.36,12.08,9.48a98.31,98.31,0,0,0,12.16,8.19c2.79,1.59,5.08,2.85,6.69,3.56a28.54,28.54,0,0,0,5.51,1.95h0l-2.2.31s-14.54,1.28-34.11-3.5a127,127,0,0,1-21.61-7.14,51.47,51.47,0,0,1-13.6-8.44l-1.4-1.23,10,1.3c.33,0,8.66-.14,20.46,4.75l19.7,7c-28.52-19.23-36.71-19.09-41.71-18.26-3.28.52-3.5.83-7.38,1.79-.16,0-1.05.21-2,.36-.27-2.77-.1-5.8,1.35-7.35,1.73-1.85,4.18-4.45,10.2-4.14,7.31.36,14.7,4.33,19.31,7A43.61,43.61,0,0,1,213.85,295.68Z"/><path class="cls-3" d="M106.79,45.14c0-.1.14-.79.93-5.49A38.28,38.28,0,0,1,109,34.47c.36-1.11.67-2,.92-2.59a11,11,0,0,1,1-1.88h0l-.65.46a42.54,42.54,0,0,0-8.2,9.36A45.85,45.85,0,0,0,98,47a19.47,19.47,0,0,0-1.59,5.6l-.07.67L98.7,50.5A20.66,20.66,0,0,0,103,44.19l3.56-6.72c-3,12.14-5.16,14.13-6.68,15.15A24.69,24.69,0,0,1,97.47,54l-.61.4A3.48,3.48,0,0,0,99,56a4.08,4.08,0,0,0,3.7-1.42c1.85-1.9,2.85-4.78,3.44-6.62A15.66,15.66,0,0,0,106.79,45.14Z"/><path class="cls-3" d="M244.5,59.64,238,58.47a41.52,41.52,0,0,1-6.1-1.58c-1.3-.44-2.36-.82-3-1.13a12.23,12.23,0,0,1-2.21-1.23h0l.54.81a50.67,50.67,0,0,0,11,10,54.81,54.81,0,0,0,8.5,4.94,21.69,21.69,0,0,0,6.6,2l.79.1-3.3-2.87a24.92,24.92,0,0,0-7.42-5.26l-7.9-4.37c14.31,3.69,16.64,6.38,17.82,8.25a27.77,27.77,0,0,1,1.58,2.91c0,.06.24.4.47.75a4.2,4.2,0,0,0,1.91-2.57,5,5,0,0,0-1.65-4.51c-2.23-2.27-5.61-3.51-7.78-4.25A19.17,19.17,0,0,0,244.5,59.64Z"/><path class="cls-3" d="M243.28,45.89c0-.1-.13-.79-.93-5.5a36.45,36.45,0,0,0-1.25-5.17c-.36-1.11-.67-2-.92-2.6a11.27,11.27,0,0,0-1-1.88h0l.66.47a42.62,42.62,0,0,1,8.2,9.35,46.35,46.35,0,0,1,4,7.23,19.37,19.37,0,0,1,1.59,5.59l.07.68-2.34-2.81a21.41,21.41,0,0,1-4.28-6.32l-3.55-6.71c3,12.14,5.16,14.12,6.68,15.14a26.59,26.59,0,0,0,2.38,1.35c.05,0,.33.2.62.4a3.52,3.52,0,0,1-2.12,1.61,4.09,4.09,0,0,1-3.69-1.43c-1.86-1.9-2.86-4.77-3.45-6.61A16.46,16.46,0,0,1,243.28,45.89Z"/><path class="cls-3" d="M126.82,154a78.17,78.17,0,0,1-3.26,9.08,58.06,58.06,0,0,1-10.85,1.45c-14.16,0-21.39-9.93-21.39-20.1,0-12.88,9.36-20.76,22.75-20.76,4.86,0,9,1.14,10.91,1.38.24,2.71.65,6.38,1.12,9.39l-1.83.42c-1.19-4-2.73-6.68-5.75-7.94a14.62,14.62,0,0,0-5.93-1c-10,0-15.11,8.06-15.11,17.27,0,11.61,6.58,19.07,15.59,19.07,6,0,8.94-2.83,12-8.84Z"/><path class="cls-3" d="M168.12,154a76.35,76.35,0,0,1-3.26,9.08A57.93,57.93,0,0,1,154,164.55c-14.16,0-21.39-9.93-21.39-20.1,0-12.88,9.36-20.76,22.76-20.76,4.86,0,9,1.14,10.9,1.38.24,2.71.65,6.38,1.13,9.39l-1.84.42c-1.18-4-2.73-6.68-5.75-7.94a14.57,14.57,0,0,0-5.92-1c-10,0-15.12,8.06-15.12,17.27,0,11.61,6.58,19.07,15.59,19.07,6,0,8.95-2.83,12-8.84Z"/><path class="cls-3" d="M207,163.65V162c4.86-.48,5-.84,5-7.28l.06-24.55c-4.86,11-12.68,28.22-14.76,33.52h-1.54c-2-5.48-8.71-22-13.21-32.92-1,21.06-1.07,25.82-1.07,27,.06,3.37,1.54,3.85,5.57,4.27v1.69H173V162c3.43-.36,4.86-1.08,5.33-4.33.36-2.65.41-4.82,2-26.78.23-3.13-.36-4.15-5.57-4.63v-1.69H185L198.1,155l14.05-30.51h10.37v1.69c-5.1.6-5.75,1.14-5.63,5.35l.24,23.11c.23,6.44.41,6.74,5.63,7.28v1.69Z"/><path class="cls-3" d="M243.38,124.53c4.21,0,7.58.79,10,2.59a10.24,10.24,0,0,1,3.92,8.55c0,8.78-7.41,12.33-13,12.33a10.25,10.25,0,0,1-1.6-.12l-4.09-1.08v9.38c0,5.06.41,5.18,5.87,5.78v1.69H228.09V162c5.1-.54,5.33-.9,5.33-5.9V132.18c0-5.36-.65-5.48-5.33-6v-1.69Zm-4.8,20.16a10.62,10.62,0,0,0,4.32.78c4,0,8.89-2,8.89-9.62,0-6.62-4.26-9.27-9.24-9.27-1.72,0-3,.3-3.32.72s-.65,1.14-.65,2.77Z"/><path class="cls-3" d="M283.84,174.88c0,57.72-51.16,101.51-112,101.51S61.77,232.6,61.77,174.88m62.29,75a18,18,0,0,0,7.45-2s-2.3,2.91,1.14,2.62,6.59-3.78,6.59-3.78c-.57,2,.86,2.33.86,2.33,4.3-.29,7.17-5.53,7.17-5.53s.28,2.91,1.72,2.91c1.14,0,4.87-3.78,5.44-4.37.2-.2.29,1.17,1.72,1.46s2.87-2.91,2.87-2.91.57,1.74,2,1.45,2.3-2.32,2.3-2.32a9.36,9.36,0,0,0,.86,1.74c.28.29,1.43-.87,1.43-.87s2,3.78,1.43,7-6,10.77-7.16,12.22a2.12,2.12,0,0,0,2,3.49c2.3-.29,2.87-1.74,4-1.74s1.44,3.2,3.16,3.2,2-2.62,2.86-2.62.29,2.33,2.58,2.62,2.87-3.2,4-3.2,2,2.91,3.44.87-5.73-10.18-6-15.13S182.8,240,182.8,240c.29.87,3.15,2.62,3.44,2.32a4.81,4.81,0,0,0,.57-1.45c.29,1.16,2.58,2.33,3.44,2.62s1.44-1.46,1.44-1.46c2,3.5,4.87,4.37,6,4.37s1.15-2.62,1.15-2.62c2,3.78,6.88,5.82,7.74,5.24s.28-2,.28-2,5.45,3.49,7.74,3.78.29-2.91.29-2.91c10.31,4.95,10-.29,9.45-2s-10.6-5.53-12.32-9C206.35,225.28,192,215,187.39,217c-2.25,1-1.44,4.37-2,7s-4.3,3.2-4.3,3.2.58-1.74-1.72-4.07c-6.3-5.53-4-7.27-4-7.27l3.15-.59-2.86-1.16s-.86-2.33-2.58-2.33-6,.59-5.73,4.37,2.86,11.64-1.72,11-4.59-2.32-5.16-3.2,1.43-7-1.72-6.69c-18,1.66-23.06,24.23-35.82,27.93A2.41,2.41,0,0,0,124.06,249.9Z"/><path class="cls-1" d="M105.89,193.8c.4,1.28,1.34,2.17,3.52,2.17s2.93-.81,2.93-1.82-.61-1.71-3.44-2.2c-3.59-.62-4.39-1.77-4.39-3.35,0-2.12,2-3.3,4.54-3.3,3.79,0,4.72,2,4.85,3.23H112c-.22-.74-.68-1.73-3-1.73-1.58,0-2.55.54-2.55,1.61,0,.89.47,1.43,3,1.86,4.21.74,4.88,2,4.88,3.68,0,1.9-1.49,3.51-5,3.51-3.3,0-4.93-1.53-5.3-3.66Z"/><path class="cls-1" d="M127.47,193.73c-.63,2-2.11,3.73-5.46,3.73-3.89,0-5.94-2.75-5.94-6.06a5.84,5.84,0,0,1,6-6.1c3.36,0,5,1.85,5.39,3.78h-1.94a3.32,3.32,0,0,0-3.48-2.21c-2.52,0-4,1.9-4,4.46s1.45,4.57,4,4.57a3.29,3.29,0,0,0,3.45-2.17Z"/><path class="cls-1" d="M129.73,185.54h1.9v4.64h6.54v-4.64h1.9v11.68h-1.9v-5.43h-6.54v5.43h-1.9Z"/><path class="cls-1" d="M154.83,191.34a6.08,6.08,0,1,1-12.16,0,6.08,6.08,0,0,1,12.16,0Zm-10.15,0c0,2.44,1.41,4.58,4.11,4.58s4-2.12,4-4.5-1.38-4.5-4.13-4.5C146.11,186.88,144.68,189,144.68,191.3Z"/><path class="cls-1" d="M168.85,191.34a6.08,6.08,0,1,1-12.16,0,5.92,5.92,0,0,1,6.12-6A5.86,5.86,0,0,1,168.85,191.34Zm-10.14,0c0,2.44,1.41,4.58,4.11,4.58s4-2.12,4-4.5-1.38-4.5-4.12-4.5C160.14,186.88,158.71,189,158.71,191.3Z"/><path class="cls-1" d="M171.36,185.54h1.89v10.07h6.82l-.28,1.61h-8.43Z"/><path class="cls-1" d="M198.09,191.34a6.08,6.08,0,1,1-12.16,0,6.08,6.08,0,0,1,12.16,0Zm-10.15,0c0,2.44,1.41,4.58,4.11,4.58s4-2.12,4-4.5-1.38-4.5-4.13-4.5C189.37,186.88,187.94,189,187.94,191.3Z"/><path class="cls-1" d="M200.6,185.54h8.92v1.6h-7v3.53H209v1.61H202.5v4.94h-1.9Z"/><path class="cls-1" d="M216.48,185.54h1.9v10.07h6.81l-.27,1.61h-8.44Z"/><path class="cls-1" d="M229.6,193.89l-1.37,3.33h-2l4.87-11.68h2.35l5.08,11.68h-2.07l-1.43-3.33Zm4.87-1.61c-1.33-3.09-1.95-4.58-2.22-5.4h0c-.24.79-1,2.74-2.07,5.4Z"/><path class="cls-1" d="M241.75,197.22l-3.5-11.68h2c.81,2.84,2.41,8.17,2.66,9.86h0c.32-1.77,2-7.06,2.87-9.86h1.87c.8,2.61,2.54,8.42,2.81,9.8h0c.36-1.83,2-7.09,2.81-9.8h1.91l-3.73,11.68h-2.08c-.8-2.64-2.48-8.18-2.78-9.63h0c-.3,1.61-1.9,6.68-2.82,9.63Z"/></g></g></svg>